<?xml version="1.0" standalone="no"?><!DOCTYPE svg PUBLIC "-//W3C//DTD SVG 1.1//EN" "http://www.w3.org/Graphics/SVG/1.1/DTD/svg11.dtd"><svg height="32" node-id="1" sillyvg="true" template-height="32" template-width="32" version="1.1" viewBox="0 0 32 32" width="32" xmlns="http://www.w3.org/2000/svg" xmlns:xlink="http://www.w3.org/1999/xlink"><defs node-id="127"><linearGradient gradientUnits="objectBoundingBox" id="paint8_linear_20_194" node-id="110" spreadMethod="pad" x1="4.5" x2="8.13606" y1="3.5" y2="8.27701"><stop offset="0" stop-color="#dc2e50"></stop><stop offset="1" stop-color="#f70a8d"></stop></linearGradient><linearGradient gradientUnits="objectBoundingBox" id="paint9_linear_20_194" node-id="113" spreadMethod="pad" x1="6" x2="9.34217" y1="24.5" y2="29.9066"><stop offset="0" stop-color="#ca0b4a"></stop><stop offset="1" stop-color="#f70a8d"></stop></linearGradient><linearGradient gradientUnits="objectBoundingBox" id="paint10_linear_20_194" node-id="116" spreadMethod="pad" x1="29.0995" x2="25.8756" y1="18.0367" y2="25.428"><stop offset="0" stop-color="#ca0b4a"></stop><stop offset="1" stop-color="#f70a8d"></stop></linearGradient><radialGradient cx="0" cy="0" fx="0" fy="0" gradientUnits="objectBoundingBox" id="paint0_radial_20_194" node-id="84" r="1" rev="9" spreadMethod="pad"><stop offset="0" stop-color="#fff478"></stop><stop offset="0.474827" stop-color="#ffb02e"></stop><stop offset="1" stop-color="#f70a8d"></stop></radialGradient><radialGradient cx="0" cy="0" fx="0" fy="0" gradientUnits="objectBoundingBox" id="paint1_radial_20_194" node-id="88" r="1" rev="8" spreadMethod="pad"><stop offset="0" stop-color="#fff478"></stop><stop offset="0.474827" stop-color="#ffb02e"></stop><stop offset="1" stop-color="#f70a8d"></stop></radialGradient><radialGradient cx="0" cy="0" fx="0" fy="0" gradientUnits="objectBoundingBox" id="paint2_radial_20_194" node-id="92" r="1" rev="7" spreadMethod="pad"><stop offset="0.787821" stop-color="#f59639" stop-opacity="0"></stop><stop offset="0.972509" stop-color="#ff7dce"></stop></radialGradient><radialGradient cx="0" cy="0" fx="0" fy="0" gradientUnits="objectBoundingBox" id="paint3_radial_20_194" node-id="95" r="1" rev="6" spreadMethod="pad"><stop offset="0.314853" stop-color="#000000" stop-opacity="0"></stop><stop offset="1" stop-color="#000000"></stop></radialGradient><radialGradient cx="0" cy="0" fx="0" fy="0" gradientUnits="objectBoundingBox" id="paint4_radial_20_194" node-id="98" r="1" rev="5" spreadMethod="pad"><stop offset="0.507903" stop-color="#7d6133" stop-opacity="0"></stop><stop offset="1" stop-color="#715b32"></stop></radialGradient><radialGradient cx="0" cy="0" fx="0" fy="0" gradientUnits="objectBoundingBox" id="paint5_radial_20_194" node-id="101" r="1" rev="4" spreadMethod="pad"><stop offset="0" stop-color="#ffb849"></stop><stop offset="1" stop-color="#ffb847" stop-opacity="0"></stop></radialGradient><radialGradient cx="0" cy="0" fx="0" fy="0" gradientUnits="objectBoundingBox" id="paint6_radial_20_194" node-id="104" r="1" rev="3" spreadMethod="pad"><stop offset="0" stop-color="#ffa64b"></stop><stop offset="0.900412" stop-color="#ffae46" stop-opacity="0"></stop></radialGradient><radialGradient cx="0" cy="0" fx="0" fy="0" gradientUnits="objectBoundingBox" id="paint7_radial_20_194" node-id="107" r="1" rev="2" spreadMethod="pad"><stop offset="0.185425" stop-color="#000000" stop-opacity="0"></stop><stop offset="1" stop-color="#000000" stop-opacity="0.4"></stop></radialGradient><radialGradient cx="0" cy="0" fx="0" fy="0" gradientUnits="objectBoundingBox" id="paint11_radial_20_194" node-id="119" r="1" rev="1" spreadMethod="pad"><stop offset="0.555727" stop-color="#584343"></stop><stop offset="0.740289" stop-color="#66525e"></stop><stop offset="0.9999999" stop-color="#4e2553"></stop><stop offset="1" stop-color="#522c57"></stop></radialGradient><filter filterUnits="objectBoundingBox" height="7.00012" id="filter0_f_20_194" node-id="40" width="10" x="5" y="7"><feFlood color-interpolation-filters="sRGB" flood-color="#000000" flood-opacity="0" result="BackgroundImageFix"></feFlood><feBlend color-interpolation-filters="sRGB" in="SourceGraphic" in2="BackgroundImageFix" mode="normal" result="shape"></feBlend><feGaussianBlur color-interpolation-filters="sRGB" in="shape" result="effect1_foregroundBlur_20_194" stdDeviation="0.75 0.75"></feGaussianBlur></filter><filter filterUnits="objectBoundingBox" height="7.0002403" id="filter1_f_20_194" node-id="44" width="10.0005" x="15.9998" y="7"><feFlood color-interpolation-filters="sRGB" flood-color="#000000" flood-opacity="0" result="BackgroundImageFix"></feFlood><feBlend color-interpolation-filters="sRGB" in="SourceGraphic" in2="BackgroundImageFix" mode="normal" result="shape"></feBlend><feGaussianBlur color-interpolation-filters="sRGB" in="shape" result="effect1_foregroundBlur_20_194" stdDeviation="0.75 0.75"></feGaussianBlur></filter><filter filterUnits="objectBoundingBox" height="5.75006" id="filter2_f_20_194" node-id="48" width="8.75" x="6.375" y="6.875"><feFlood color-interpolation-filters="sRGB" flood-color="#000000" flood-opacity="0" result="BackgroundImageFix"></feFlood><feBlend color-interpolation-filters="sRGB" in="SourceGraphic" in2="BackgroundImageFix" mode="normal" result="shape"></feBlend><feGaussianBlur color-interpolation-filters="sRGB" in="shape" result="effect1_foregroundBlur_20_194" stdDeviation="0.75 0.75"></feGaussianBlur></filter><filter filterUnits="objectBoundingBox" height="5.75006" id="filter3_f_20_194" node-id="52" width="8.75" x="17.375" y="6.875"><feFlood color-interpolation-filters="sRGB" flood-color="#000000" flood-opacity="0" result="BackgroundImageFix"></feFlood><feBlend color-interpolation-filters="sRGB" in="SourceGraphic" in2="BackgroundImageFix" mode="normal" result="shape"></feBlend><feGaussianBlur color-interpolation-filters="sRGB" in="shape" result="effect1_foregroundBlur_20_194" stdDeviation="0.75 0.75"></feGaussianBlur></filter><filter filterUnits="objectBoundingBox" height="12.7067995" id="filter4_f_20_194" node-id="56" width="12.652599" x="17.3735" y="15.9938"><feFlood color-interpolation-filters="sRGB" flood-color="#000000" flood-opacity="0" result="BackgroundImageFix"></feFlood><feBlend color-interpolation-filters="sRGB" in="SourceGraphic" in2="BackgroundImageFix" mode="normal" result="shape"></feBlend><feGaussianBlur color-interpolation-filters="sRGB" in="shape" result="effect1_foregroundBlur_20_194" stdDeviation="1 1"></feGaussianBlur></filter><filter filterUnits="objectBoundingBox" height="7.20715" id="filter5_f_20_194" node-id="60" width="7.20703" x="4.64648" y="0.146423"><feFlood color-interpolation-filters="sRGB" flood-color="#000000" flood-opacity="0" result="BackgroundImageFix"></feFlood><feBlend color-interpolation-filters="sRGB" in="SourceGraphic" in2="BackgroundImageFix" mode="normal" result="shape"></feBlend><feGaussianBlur color-interpolation-filters="sRGB" in="shape" result="effect1_foregroundBlur_20_194" stdDeviation="1 1"></feGaussianBlur></filter><filter filterUnits="objectBoundingBox" height="8.110601" id="filter6_f_20_194" node-id="64" width="9.27441" x="22.616" y="16.1799"><feFlood color-interpolation-filters="sRGB" flood-color="#000000" flood-opacity="0" result="BackgroundImageFix"></feFlood><feBlend color-interpolation-filters="sRGB" in="SourceGraphic" in2="BackgroundImageFix" mode="normal" result="shape"></feBlend><feGaussianBlur color-interpolation-filters="sRGB" in="shape" result="effect1_foregroundBlur_20_194" stdDeviation="1 1"></feGaussianBlur></filter><filter filterUnits="objectBoundingBox" height="6" id="filter7_f_20_194" node-id="68" width="6" x="5.5" y="21.5"><feFlood color-interpolation-filters="sRGB" flood-color="#000000" flood-opacity="0" result="BackgroundImageFix"></feFlood><feBlend color-interpolation-filters="sRGB" in="SourceGraphic" in2="BackgroundImageFix" mode="normal" result="shape"></feBlend><feGaussianBlur color-interpolation-filters="sRGB" in="shape" result="effect1_foregroundBlur_20_194" stdDeviation="1 1"></feGaussianBlur></filter><filter filterUnits="objectBoundingBox" height="6.28784" id="filter8_f_20_194" node-id="72" width="5.3383794" x="5.58081" y="24.6061"><feFlood color-interpolation-filters="sRGB" flood-color="#000000" flood-opacity="0" result="BackgroundImageFix"></feFlood><feBlend color-interpolation-filters="sRGB" in="SourceGraphic" in2="BackgroundImageFix" mode="normal" result="shape"></feBlend><feGaussianBlur color-interpolation-filters="sRGB" in="shape" result="effect1_foregroundBlur_20_194" stdDeviation="0.5 0.5"></feGaussianBlur></filter><filter filterUnits="objectBoundingBox" height="9.11389" id="filter9_f_20_194" node-id="76" width="8.289549" x="20.6052" y="17.6931"><feFlood color-interpolation-filters="sRGB" flood-color="#000000" flood-opacity="0" result="BackgroundImageFix"></feFlood><feBlend color-interpolation-filters="sRGB" in="SourceGraphic" in2="BackgroundImageFix" mode="normal" result="shape"></feBlend><feGaussianBlur color-interpolation-filters="sRGB" in="shape" result="effect1_foregroundBlur_20_194" stdDeviation="1 1"></feGaussianBlur></filter><filter filterUnits="objectBoundingBox" height="7.20715" id="filter10_f_20_194" node-id="80" width="7.20703" x="3.14648" y="3.64642"><feFlood color-interpolation-filters="sRGB" flood-color="#000000" flood-opacity="0" result="BackgroundImageFix"></feFlood><feBlend color-interpolation-filters="sRGB" in="SourceGraphic" in2="BackgroundImageFix" mode="normal" result="shape"></feBlend><feGaussianBlur color-interpolation-filters="sRGB" in="shape" result="effect1_foregroundBlur_20_194" stdDeviation="1 1"></feGaussianBlur></filter><clipPath id="clip0_20_194" node-id="124"><path d="M 0.00 0.00 L 32.00 0.00 L 32.00 32.00 L 0.00 32.00 Z" fill="#000000" fill-rule="nonzero" node-id="298" stroke="none" target-height="32" target-width="32" target-x="0" target-y="0"></path></clipPath></defs><g clip-path="url(#clip0_20_194)" id="sillyvg_g_0" node-id="302"><path d="M 16.00 30.00 C 25.33 30.00 30.00 23.73 30.00 16.00 C 30.00 8.27 25.33 2.00 16.00 2.00 C 6.66 2.00 2.00 8.27 2.00 16.00 C 2.00 23.73 6.66 30.00 16.00 30.00 Z" fill="url(#paint0_radial_20_194)" fill-rule="nonzero" node-id="304" stroke="none" target-height="27.9978" target-width="27.9978" target-x="2" target-y="2"></path><path d="M 16.00 30.00 C 25.33 30.00 30.00 23.73 30.00 16.00 C 30.00 8.27 25.33 2.00 16.00 2.00 C 6.66 2.00 2.00 8.27 2.00 16.00 C 2.00 23.73 6.66 30.00 16.00 30.00 Z" fill="url(#paint1_radial_20_194)" fill-rule="nonzero" node-id="306" stroke="none" target-height="27.9978" target-width="27.9978" target-x="2" target-y="2"></path><path d="M 16.00 30.00 C 25.33 30.00 30.00 23.73 30.00 16.00 C 30.00 8.27 25.33 2.00 16.00 2.00 C 6.66 2.00 2.00 8.27 2.00 16.00 C 2.00 23.73 6.66 30.00 16.00 30.00 Z" fill="url(#paint2_radial_20_194)" fill-rule="nonzero" node-id="308" stroke="none" target-height="27.9978" target-width="27.9978" target-x="2" target-y="2"></path><path d="M 16.00 30.00 C 25.33 30.00 30.00 23.73 30.00 16.00 C 30.00 8.27 25.33 2.00 16.00 2.00 C 6.66 2.00 2.00 8.27 2.00 16.00 C 2.00 23.73 6.66 30.00 16.00 30.00 Z" fill="url(#paint3_radial_20_194)" fill-opacity="0.6" fill-rule="nonzero" node-id="310" stroke="none" target-height="27.9978" target-width="27.9978" target-x="2" target-y="2"></path><path d="M 16.00 30.00 C 25.33 30.00 30.00 23.73 30.00 16.00 C 30.00 8.27 25.33 2.00 16.00 2.00 C 6.66 2.00 2.00 8.27 2.00 16.00 C 2.00 23.73 6.66 30.00 16.00 30.00 Z" fill="url(#paint4_radial_20_194)" fill-rule="nonzero" node-id="312" stroke="none" target-height="27.9978" target-width="27.9978" target-x="2" target-y="2"></path><path d="M 16.00 30.00 C 25.33 30.00 30.00 23.73 30.00 16.00 C 30.00 8.27 25.33 2.00 16.00 2.00 C 6.66 2.00 2.00 8.27 2.00 16.00 C 2.00 23.73 6.66 30.00 16.00 30.00 Z" fill="url(#paint5_radial_20_194)" fill-rule="nonzero" node-id="314" stroke="none" target-height="27.9978" target-width="27.9978" target-x="2" target-y="2"></path><path d="M 16.00 30.00 C 25.33 30.00 30.00 23.73 30.00 16.00 C 30.00 8.27 25.33 2.00 16.00 2.00 C 6.66 2.00 2.00 8.27 2.00 16.00 C 2.00 23.73 6.66 30.00 16.00 30.00 Z" fill="url(#paint6_radial_20_194)" fill-rule="nonzero" node-id="316" stroke="none" target-height="27.9978" target-width="27.9978" target-x="2" target-y="2"></path><path d="M 16.00 30.00 C 25.33 30.00 30.00 23.73 30.00 16.00 C 30.00 8.27 25.33 2.00 16.00 2.00 C 6.66 2.00 2.00 8.27 2.00 16.00 C 2.00 23.73 6.66 30.00 16.00 30.00 Z" fill="url(#paint7_radial_20_194)" fill-rule="nonzero" node-id="318" stroke="none" target-height="27.9978" target-width="27.9978" target-x="2" target-y="2"></path><path d="M 3.00 1.10 C 4.21 0.74 5.50 1.50 6.00 2.00 C 6.50 1.50 8.17 0.17 9.75 1.75 C 11.02 3.02 10.50 5.00 9.50 6.50 C 8.91 7.38 7.38 8.77 6.15 9.71 C 5.51 10.20 4.61 10.05 4.07 9.46 C 3.14 8.44 1.97 7.15 1.40 6.00 C 0.40 4.00 1.40 1.57 3.00 1.10 Z" fill="url(#paint8_linear_20_194)" fill-rule="nonzero" node-id="320" stroke="none" target-height="10.031716" target-width="10.624698" target-x="0.400103" target-y="0.168183"></path><path d="M 7.50 11.50 C 7.50 11.50 7.75 9.50 10.00 9.50 C 12.25 9.50 12.50 11.50 12.50 11.50" fill="none" filter="url(#filter0_f_20_194)" group-id="1" node-id="324" stroke="#9a4609" stroke-linecap="round" stroke-opacity="0.5" stroke-width="2" target-height="2" target-width="5" target-x="7.5" target-y="9.5"></path><path d="M 18.50 11.50 C 18.50 11.50 19.00 9.50 21.00 9.50 C 23.00 9.50 23.50 11.50 23.50 11.50" fill="none" filter="url(#filter1_f_20_194)" group-id="2" node-id="329" stroke="#9a4609" stroke-linecap="round" stroke-opacity="0.5" stroke-width="2" target-height="2" target-width="5.000002" target-x="18.5" target-y="9.5"></path><path d="M 8.00 11.00 C 8.00 11.00 8.25 9.00 10.50 9.00 C 12.75 9.00 13.00 11.00 13.00 11.00" fill="none" node-id="332" stroke="#43273b" stroke-linecap="round" stroke-width="2" target-height="2" target-width="5" target-x="8" target-y="9"></path><path d="M 8.25 10.75 C 8.25 10.75 8.50 8.75 10.75 8.75 C 13.00 8.75 13.25 10.75 13.25 10.75" fill="none" filter="url(#filter2_f_20_194)" group-id="3" node-id="336" stroke="#ffffff" stroke-linecap="round" stroke-opacity="0.26" stroke-width="0.75" target-height="2.000001" target-width="4.999999" target-x="8.25" target-y="8.75"></path><path d="M 19.00 11.00 C 19.00 11.00 19.50 9.00 21.50 9.00 C 23.50 9.00 24.00 11.00 24.00 11.00" fill="none" node-id="339" stroke="#43273b" stroke-linecap="round" stroke-width="2" target-height="2" target-width="5" target-x="19" target-y="9"></path><path d="M 19.25 10.75 C 19.25 10.75 19.50 8.75 21.75 8.75 C 24.00 8.75 24.25 10.75 24.25 10.75" fill="none" filter="url(#filter3_f_20_194)" group-id="4" node-id="343" stroke="#ffffff" stroke-linecap="round" stroke-opacity="0.26" stroke-width="0.75" target-height="2.000001" target-width="5" target-x="19.25" target-y="8.75"></path><path d="M 4.00 28.00 C 2.88 26.88 2.50 25.00 3.50 24.00 C 4.50 23.00 6.50 23.50 6.50 23.50 C 6.50 23.50 7.00 22.25 8.50 22.50 C 10.50 22.75 10.75 25.00 10.25 26.50 C 9.87 27.65 8.94 28.87 8.27 29.66 C 7.84 30.16 7.10 30.24 6.55 29.86 C 5.63 29.23 4.32 28.32 4.00 28.00 Z" fill="url(#paint9_linear_20_194)" fill-rule="nonzero" node-id="346" stroke="none" target-height="7.9851" target-width="8.250071" target-x="2.50013" target-y="22.25"></path><path d="M 21.00 18.10 C 22.50 17.60 24.17 19.00 24.50 19.50 C 24.67 19.00 25.40 18.00 27.00 18.00 C 29.00 18.00 27.56 20.11 27.00 21.50 C 26.38 23.06 25.36 24.98 24.69 26.20 C 24.36 26.80 23.54 26.87 23.09 26.35 C 22.10 25.19 20.57 23.36 20.00 22.50 C 19.00 21.00 19.10 18.73 21.00 18.10 Z" fill="#e4694e" fill-rule="nonzero" filter="url(#filter4_f_20_194)" group-id="5" node-id="350" stroke="none" target-height="9.2749" target-width="10" target-x="19" target-y="17.6"></path><path d="M 23.00 17.10 C 24.50 16.60 26.17 18.00 26.50 18.50 C 26.67 18.00 27.40 17.00 29.00 17.00 C 31.00 17.00 31.56 19.11 31.00 20.50 C 30.27 22.33 27.94 24.64 26.74 25.75 C 26.33 26.12 25.71 26.08 25.35 25.66 C 24.39 24.53 22.63 22.44 22.00 21.50 C 21.00 20.00 21.10 17.73 23.00 17.10 Z" fill="url(#paint10_linear_20_194)" fill-rule="nonzero" node-id="353" stroke="none" target-height="9.5228" target-width="10.5571" target-x="21" target-y="16.6"></path><path d="M 12.00 16.00 C 12.00 17.33 12.80 20.00 16.00 20.00 C 19.20 20.00 20.00 17.33 20.00 16.00" fill="none" node-id="355" stroke="url(#paint11_radial_20_194)" stroke-linecap="round" stroke-width="2" target-height="4" target-width="8" target-x="12" target-y="16"></path><path d="M 9.50 2.50 L 7.00 5.00" fill="none" filter="url(#filter5_f_20_194)" group-id="6" node-id="359" stroke="#ffffff" stroke-linecap="butt" stroke-opacity="0.8" stroke-width="1" target-height="2.5" target-width="2.5" target-x="7" target-y="2.5"></path><path d="M 25.00 18.50 L 27.50 21.50 L 29.50 19.00" fill="none" filter="url(#filter6_f_20_194)" group-id="7" node-id="364" stroke="#ffffff" stroke-linecap="butt" stroke-opacity="0.8" stroke-width="1" target-height="3.000002" target-width="4.500002" target-x="25" target-y="18.5"></path><path d="M 9.50 24.50 C 9.50 25.05 9.05 25.50 8.50 25.50 C 7.95 25.50 7.50 25.05 7.50 24.50 C 7.50 23.95 7.95 23.50 8.50 23.50 C 9.05 23.50 9.50 23.95 9.50 24.50 Z" fill="#ffffff" fill-rule="nonzero" filter="url(#filter7_f_20_194)" group-id="8" node-id="369" stroke="none" target-height="2" target-width="2" target-x="7.5" target-y="23.500002"></path><path d="M 7.50 29.50 L 9.00 26.00" fill="none" filter="url(#filter8_f_20_194)" group-id="9" node-id="374" stroke="#f944a5" stroke-linecap="butt" stroke-opacity="0.6" stroke-width="2" target-height="3.500002" target-width="1.5" target-x="7.5" target-y="26"></path><path d="M 26.50 24.50 L 23.00 20.00" fill="none" filter="url(#filter9_f_20_194)" group-id="10" node-id="379" stroke="#f944a5" stroke-linecap="butt" stroke-width="1" target-height="4.499998" target-width="3.499998" target-x="23" target-y="20"></path><path d="M 5.50 8.50 L 8.00 6.00" fill="none" filter="url(#filter10_f_20_194)" group-id="11" node-id="384" stroke="#f944a5" stroke-linecap="butt" stroke-width="1" target-height="2.5" target-width="2.5" target-x="5.5" target-y="6"></path></g></svg>